<?xml version="1.0" encoding="utf-8"?>
<!-- Generator: Adobe Illustrator 21.1.0, SVG Export Plug-In . SVG Version: 6.00 Build 0)  -->
<svg version="1.1" id="address" xmlns="http://www.w3.org/2000/svg" xmlns:xlink="http://www.w3.org/1999/xlink" x="0px" y="0px"
	 viewBox="0 0 122.8 122.7" style="enable-background:new 0 0 122.8 122.7;" xml:space="preserve">
<style type="text/css">
	.st0{fill:#A5AD4B;}
</style>
<g id="address-body_1_">
	<path class="st0" d="M57.5,0h8.3C75,0,85.5,3.7,97.4,11.2c6.9,5.5,12.2,11,15.9,16.7c6.3,11.5,9.5,21,9.5,28.7V66
		c-0.4,8.1-3.3,17.1-8.7,27.2c-7.7,12.4-19.6,21.4-35.6,26.8c-3.7,1-8.9,1.8-15.6,2.6c-0.4,0-0.7,0-1,0h-0.8
		c-11.5-1-19.7-3-24.7-5.8C22,110,11.7,99.5,5.6,85.3c-3.4-7.4-5.1-15.4-5.1-24C0.5,38.9,11,21,31.8,7.6C42.1,2.5,50.7,0,57.5,0z
		 M38.7,53.7v2.9c0,8.1,6,18.9,18.1,32.3c3.5,2.7,5.9,4.2,7.3,4.3c5.9-1.6,13.1-9.5,21.4-23.6c2.7-6.1,4-11,4-14.9
		c0-7.6-3.5-14.5-10.5-20.7c-4.8-3.4-9.4-5.1-13.8-5.1h-2.9c-4.6,0.5-9.4,2.4-14.5,5.8C41.7,41.4,38.7,47.7,38.7,53.7z M64.4,39.2
		c6.7,0,11.6,4,14.5,12c0.2,1.7,0.4,3,0.4,4c0,5.8-3.3,10.4-9.8,13.8c-1.5,0.5-2.6,0.7-3.3,0.7h-4c-4.6,0-8.9-3.1-12.7-9.4l-1.1-5.5
		c1-5.3,2-8,2.9-8c1.4,2.9,3.1,4.3,5.1,4.3h1.4c3.6-0.9,5.4-2.7,5.4-5.4v-1.1c0-1-0.8-2.6-2.5-4.7C61.2,39.6,62.4,39.4,64.4,39.2z"
		/>
</g>
</svg>
