<?xml version="1.0" encoding="utf-8"?>
<!-- Generator: Adobe Illustrator 21.1.0, SVG Export Plug-In . SVG Version: 6.00 Build 0)  -->
<svg version="1.1" id="mail" xmlns="http://www.w3.org/2000/svg" xmlns:xlink="http://www.w3.org/1999/xlink" x="0px" y="0px"
	 viewBox="0 0 122.8 122.7" style="enable-background:new 0 0 122.8 122.7;" xml:space="preserve">
<style type="text/css">
	.st0{fill:#A5AD4B;}
</style>
<path id="mail-body" class="st0" d="M65.4,0c10.6,0,23.1,5,36,14.7c14.3,13.6,21.4,29.1,21.4,46.5c0,20.3-9,37.3-26.9,50.9
	c-10.7,7-22.2,10.5-34.5,10.5c-22.3,0-40-10.2-53.1-30.5C2.8,82.3,0,72,0,61.2c0-19.8,8.6-36.4,25.8-49.8C35.2,5,45.4,1.1,55.6,0.2
	C58.8-0.1,61,0,65.4,0z M27.6,43.8v39.3c0.3,2.4,1.5,3.6,3.6,3.6h60.3c2.4-0.4,3.6-1.6,3.6-3.6V44.2c0-1.5-0.7-2.7-2.1-3.7H29.8
	C28.3,41.4,27.6,42.4,27.6,43.8z M31.6,44.2H32c2.3,1.5,9.6,7.5,21.8,17.8c2.5,2.2,5.1,4.3,7.7,6.1C71.8,59.7,81.1,52,89.4,44.9
	l0.4,0.7c-4.6,4-9.9,9.2-16,15.6l17.8,21.1v0.8l-20.4-20h-0.4c0,0.7-3.1,4-9.4,9.8l-10.2-9.5c-6.7,7-13.5,13.7-20.4,20v-0.7
	l18.2-21.5C47.2,59,41.3,53.3,31.6,44.2z"/>
</svg>
