<?xml version="1.0" encoding="utf-8"?>
<!-- Generator: Adobe Illustrator 21.1.0, SVG Export Plug-In . SVG Version: 6.00 Build 0)  -->
<svg version="1.1" id="facebook" xmlns="http://www.w3.org/2000/svg" xmlns:xlink="http://www.w3.org/1999/xlink" x="0px" y="0px"
	 viewBox="0 0 122.8 122.7" style="enable-background:new 0 0 122.8 122.7;" xml:space="preserve">
<style type="text/css">
	.st0{fill:#A5AD4B;}
</style>
<path id="facebook-body" class="st0" d="M0,57.3c1.5-11.8,4.7-21.4,9.5-28.7C17,16.4,28.6,7.7,44.3,2.5C50.2,0.8,55.3,0,59.5,0h3.7
	C78.3,0,92.6,6.4,106,19.2c9.5,11.5,14.7,21.9,15.6,31.2c0.7,4.4,1.1,7.2,1.1,8.4v5.1c0,8.2-2.8,17.6-8.3,28.4
	c-8.1,13.2-19.6,22.4-34.5,27.6c-7.6,1.9-13.5,2.9-17.8,2.9h-1.4c-15.7,0-30.2-6.3-43.6-18.9C5.7,91.2,0,76.5,0,59.9v-0.7
	 M51.2,39.2l0.4,11.2c0,0.4-0.4,0.7-1.1,1.1h-6.2v12.7h6.2c0.4,0,0.7,0.4,1.1,1.1v31.2l0.2,2.2h12.9V65c0.1-0.5,0.3-0.8,0.7-0.8
	h10.5c0.5,0,1.1-4,1.8-12v-0.7H65.4c-0.5,0-0.7-0.2-0.7-0.7v-8.7c0-3.7,2.2-5.8,6.5-6.2h7.3V25c0-0.7-2.5-1.1-7.6-1.1H69
	c-8.4,0-13.8,3.1-16.3,9.4C52.2,34.7,51.7,36.6,51.2,39.2z"/>
</svg>
