<?xml version="1.0" encoding="utf-8"?>
<!-- Generator: Adobe Illustrator 21.1.0, SVG Export Plug-In . SVG Version: 6.00 Build 0)  -->
<svg version="1.1" id="youtube" xmlns="http://www.w3.org/2000/svg" xmlns:xlink="http://www.w3.org/1999/xlink" x="0px" y="0px"
	 viewBox="0 0 122.8 122.7" style="enable-background:new 0 0 122.8 122.7;" xml:space="preserve">
<style type="text/css">
	.st0{fill:#A5AD4B;}
</style>
<path id="youtube-body" class="st0" d="M61.3,0c20,0,36.7,8.7,50.1,26.1c7.5,11.4,11.3,23.2,11.3,35.6c0,14.3-5.2,27.7-15.6,40.3
	c-13.2,13.8-28.4,20.7-45.7,20.7c-19.7,0-36.3-8.5-49.7-25.4C7.4,91.6,4,84.2,1.4,75.1L0,65v-6.6c0.4-9.1,3.1-18.3,8-27.6
	C21.5,10.3,39.3,0,61.3,0z M58.8,37.8c-20.3,0-30.5,1.6-30.5,4.7c-1.6,1-2.5,7.5-2.9,19.6v0.4c0,13.7,1.7,21.4,5.1,23.3
	c2.6,1.2,8.7,1.8,18.1,1.8h32.7c7.6,0,12.1-1.7,13.4-5.1c1.4-3.6,2.1-9.4,2.1-17.4v-5.1c0-11.3-1.4-18-4.4-20
	C90.4,38.5,79.1,37.8,58.8,37.8z M54.1,52.6h0.4c11.4,5.9,17.3,9.2,17.8,9.8l-17,9.4h-1.1V52.6z"/>
</svg>
